<svg width="513" height="90" viewBox="0 0 513 90" fill="none" xmlns="http://www.w3.org/2000/svg">
<g clip-path="url(#clip0_81_2)">
<path d="M131.272 19.1573H101.272V28.8202H119.362V57.5281C119.362 62.8652 117.003 65.3933 112.958 65.3933C108.239 65.3933 106.104 62.0786 105.261 57.4719L94.0813 59.7191C95.8229 68.8764 101.722 75 112.958 75C124.137 75 131.441 68.5955 131.272 58.7079V19.1573ZM161.89 75C174.531 75 182.284 66.9101 182.284 53.764C182.284 40.618 174.531 32.5281 161.89 32.5281C149.25 32.5281 141.497 40.618 141.497 53.764C141.497 66.9101 149.25 75 161.89 75ZM161.89 66.3483C156.722 66.3483 153.576 62.9775 153.576 56.9663V50.5056C153.576 44.5506 156.722 41.1798 161.89 41.1798C167.059 41.1798 170.205 44.5506 170.205 50.5056V56.9663C170.205 62.9775 167.059 66.3483 161.89 66.3483ZM190.149 15.8427V74.0449H201.778V66.6292H202.34C204.362 71.5168 207.845 75 214.362 75C223.295 75 229.587 68.4831 229.587 53.764C229.587 39.0449 223.295 32.5281 214.362 32.5281C207.845 32.5281 204.362 35.9551 202.34 40.8427H201.778V15.8427H190.149ZM209.306 65.9551C205.205 65.9551 201.778 63.9888 201.778 59.7191V47.7528C201.778 43.5393 205.205 41.573 209.306 41.573C214.531 41.573 217.508 44.9438 217.508 50.618V56.9101C217.508 62.5843 214.531 65.9551 209.306 65.9551ZM238.969 74.0449H250.767V51.0674H272.789V41.4045H250.767V28.8202H275.373V19.1573H238.969V74.0449ZM305.991 28.2584C311.16 28.2584 312.958 25.8427 312.958 22.7528V20.5056C312.958 17.3596 311.16 15 305.991 15C300.767 15 298.969 17.3596 298.969 20.5056V22.7528C298.969 25.8427 300.767 28.2584 305.991 28.2584ZM287.284 65V74.0449H323.744V65H311.778V33.4831H287.284V42.5281H300.149V65H287.284ZM332.171 74.0449H343.8V47.3595C343.8 43.427 347.34 41.4607 350.991 41.4607C355.542 41.4607 357.789 44.2135 357.789 49.3258V74.0449H369.475V47.7528C369.475 37.9213 364.025 32.5281 356.216 32.5281C349.699 32.5281 346.104 36.2921 344.306 40.8427H343.8V33.4831H332.171V74.0449ZM405.149 66.6292V74.0449H416.778V15.8427H405.149V40.8427H404.587C402.564 35.9551 399.081 32.5281 392.564 32.5281C383.632 32.5281 377.34 39.0449 377.34 53.764C377.34 68.4831 383.632 75 392.564 75C399.081 75 402.564 71.5168 404.587 66.6292H405.149ZM397.621 65.9551C392.396 65.9551 389.418 62.5843 389.418 56.9101V50.618C389.418 44.9438 392.396 41.573 397.621 41.573C401.722 41.573 405.149 43.5393 405.149 47.7528V59.7191C405.149 63.9888 401.722 65.9551 397.621 65.9551ZM446.16 75C454.868 75 460.373 71.6854 463.519 67.809L457.227 61.0112C454.699 63.9888 451.328 66.0112 446.553 66.0112C440.317 66.0112 436.946 62.4719 436.946 57.3034V56.573H464.699V53.1461C464.699 40.4494 457.227 32.5281 445.093 32.5281C432.901 32.5281 425.373 40.618 425.373 53.9326C425.373 66.9101 432.508 75 446.16 75ZM445.205 40.8427C450.205 40.8427 453.295 44.1573 453.295 49.4382V50.0562H436.946V49.4382C436.946 44.2135 440.149 40.8427 445.205 40.8427ZM474.475 65V74.0449H508.8V65H495.43V51.0112C495.43 46.4607 498.969 44.1573 504.194 44.1573H512.845V33.4831H508.969C501.609 33.4831 497.733 38.6517 495.991 43.9888H495.43V33.4831H474.475V42.5281H483.8V65H474.475Z" fill="black"/>
<path d="M0.789307 51.3197L74.8706 25.6584L0.789307 0V51.3197ZM74.8706 90V38.6803L0.789307 64.3416L74.8706 90Z" fill="black"/>
</g>
<defs>
<clipPath id="clip0_81_2">
<rect width="513" height="90" fill="white"/>
</clipPath>
</defs>
</svg>
